HIERARCHY
ROOT Elbow
{
	OFFSET	0.00	0.00	0.00
	CHANNELS 6 Xposition Yposition Zposition Zrotation Xrotation Yrotation
	JOINT L_Wrist
	{
		OFFSET	 0.208349	 0.000000	 0.000000
		CHANNELS 3 Zrotation Xrotation Yrotation
		JOINT L_index_Proximal
		{
			OFFSET	 0.093499	 0.010637	-0.002084
			CHANNELS 3 Zrotation Xrotation Yrotation
			JOINT L_index_b
			{
				OFFSET	 0.033152	 0.000000	 0.000000
				CHANNELS 3 Zrotation Xrotation Yrotation
				JOINT L_index_c
				{
					OFFSET	 0.018651	 0.000000	 0.000000
					CHANNELS 3 Zrotation Xrotation Yrotation
					End Site
					{
						OFFSET	 0.018651	 0.000000	 0.000000
					}
				}
			}
		}
		JOINT L_middle_Proximal
		{
			OFFSET	 0.090632	-0.006115	-0.003750
			CHANNELS 3 Zrotation Xrotation Yrotation
			JOINT L_middle_b
			{
				OFFSET	 0.037194	 0.000000	 0.000000
				CHANNELS 3 Zrotation Xrotation Yrotation
				JOINT L_middle_c
				{
					OFFSET	 0.021943	 0.000000	 0.000000
					CHANNELS 3 Zrotation Xrotation Yrotation
					End Site
					{
						OFFSET	 0.021943	 0.000000	 0.000000
					}
				}
			}
		}
		JOINT L_pinky_Proximal
		{
			OFFSET	 0.074015	-0.035449	-0.000417
			CHANNELS 3 Zrotation Xrotation Yrotation
			JOINT L_pinky_b
			{
				OFFSET	 0.027285	 0.000000	 0.000000
				CHANNELS 3 Zrotation Xrotation Yrotation
				JOINT L_pinky_c
				{
					OFFSET	 0.015093	 0.000000	 0.000000
					CHANNELS 3 Zrotation Xrotation Yrotation
					End Site
					{
						OFFSET	 0.015093	 0.000000	 0.000000
					}
				}
			}
		}
		JOINT L_ring_Proximal
		{
			OFFSET	 0.082801	-0.021859	-0.003750
			CHANNELS 3 Zrotation Xrotation Yrotation
			JOINT L_ring_b
			{
				OFFSET	 0.034478	 0.000000	 0.000000
				CHANNELS 3 Zrotation Xrotation Yrotation
				JOINT L_ring_c
				{
					OFFSET	 0.021377	 0.000000	 0.000000
					CHANNELS 3 Zrotation Xrotation Yrotation
					End Site
					{
						OFFSET	 0.021377	 0.000000	 0.000000
					}
				}
			}
		}
		JOINT L_thumb_Proximal
		{
			OFFSET	 0.030306	 0.018528	 0.004584
			CHANNELS 3 Zrotation Xrotation Yrotation
			JOINT L_thumb_a
			{
				OFFSET	 0.038520	 0.000000	 0.000000
				CHANNELS 3 Zrotation Xrotation Yrotation
				JOINT L_thumb_b
				{
					OFFSET	 0.026310	 0.000000	 0.000000
					CHANNELS 3 Zrotation Xrotation Yrotation
					End Site
					{
						OFFSET	 0.026310	 0.000000	 0.000000
					}
				}
			}
		}
	}
}
MOTION
Frames:    8
Frame Time: 0.01666667
-0.112734	-0.134811	 0.730066	 55.744510	 32.672930	-175.767100	 12.790890	 3.349126	 19.383160	 5.785671	-3.137082	-45.717030	-1.800529	 0.773539	-46.495620	-1.028670	 0.188187	-20.733720	-13.819430	-5.263093	-67.202880	-0.227162	 0.157458	-69.453530	 0.232336	-0.075577	-36.043250	-26.331420	-19.821510	-7.827189	 2.023466	-0.387699	-21.690980	 8.240843	-1.124125	-15.509370	-20.862450	-10.211170	-53.523400	-5.639489	 3.442015	-62.769040	-4.706635	 1.735868	-40.471100	 74.767510	 39.565850	-60.943230	-3.609475	 0.432872	-13.672950	-2.419223	 1.129786	-50.060520
-0.112902	-0.134839	 0.730123	 55.738060	 32.678480	-175.763500	 12.776780	 3.348803	 19.381180	 5.803392	-3.144098	-45.686190	-1.811821	 0.778521	-46.502770	-1.053022	 0.192943	-20.765510	-13.817140	-5.264855	-67.203310	-0.247125	 0.171264	-69.447070	 0.225119	-0.073223	-36.038070	-26.301420	-19.823960	-7.696904	 2.015949	-0.384269	-21.581590	 8.276755	-1.121866	-15.412150	-20.854980	-10.216700	-53.478870	-5.681090	 3.460312	-62.664270	-4.779934	 1.759091	-40.390130	 74.756870	 39.590240	-60.916980	-3.587068	 0.430121	-13.670880	-2.401357	 1.122380	-50.096460
-0.113082	-0.135221	 0.730347	 55.711700	 32.534960	-175.770300	 12.726550	 3.353236	 19.407910	 5.911913	-3.184934	-45.470280	-1.894244	 0.816573	-46.637080	-1.129645	 0.208490	-20.912780	-13.702220	-5.367125	-66.978080	-0.357628	 0.246632	-69.184070	 0.100455	-0.032664	-36.026250	-26.231090	-19.826220	-7.029200	 1.917449	-0.358499	-21.178380	 8.200195	-1.090992	-15.131670	-20.738360	-10.292890	-53.173960	-5.719252	 3.448714	-62.153190	-4.960093	 1.814360	-40.164160	 74.638200	 39.747700	-60.797950	-3.593138	 0.431671	-13.696820	-2.428702	 1.143367	-50.414570
-0.113157	-0.135362	 0.730467	 55.713430	 32.411280	-175.774400	 12.708200	 3.351146	 19.395330	 5.909925	-3.175275	-45.344380	-1.979439	 0.853679	-46.655210	-1.206374	 0.223312	-20.974040	-13.645890	-5.416138	-66.882380	-0.379557	 0.260938	-69.014970	 0.069925	-0.022768	-36.067110	-26.219390	-19.825960	-6.856478	 1.871277	-0.349136	-21.135140	 8.148922	-1.080489	-15.081230	-20.678350	-10.331620	-53.022950	-5.691493	 3.414976	-61.902140	-4.979633	 1.816654	-40.065360	 74.541900	 39.849490	-60.740110	-3.605312	 0.436499	-13.802170	-2.449647	 1.156664	-50.545860
-0.113100	-0.135566	 0.730700	 55.684720	 32.309190	-175.776600	 12.662100	 3.348680	 19.380440	 5.965498	-3.194689	-45.215780	-2.034167	 0.881553	-46.857460	-1.203644	 0.225219	-21.196300	-13.586360	-5.474617	-66.657770	-0.314012	 0.215737	-68.980360	 0.145263	-0.047370	-36.122570	-26.203490	-19.827710	-6.857536	 1.855905	-0.347674	-21.219270	 8.096613	-1.079961	-15.170390	-20.660310	-10.346810	-52.813100	-5.621312	 3.359480	-61.701760	-4.870466	 1.779803	-40.128250	 74.460690	 39.930310	-60.698460	-3.651958	 0.445939	-13.918650	-2.516118	 1.200059	-50.992270
-0.112894	-0.135776	 0.730784	 55.653470	 32.231960	-175.770700	 12.666240	 3.348954	 19.382090	 5.930007	-3.170397	-45.124570	-2.149662	 0.935456	-47.029870	-1.180583	 0.222652	-21.359730	-13.516080	-5.538518	-66.477280	-0.249647	 0.171284	-68.908360	 0.164736	-0.053761	-36.146840	-26.146920	-19.834100	-6.874599	 1.901226	-0.355822	-21.198850	 8.225355	-1.093904	-15.125630	-20.679780	-10.337140	-52.734380	-5.616903	 3.355201	-61.677080	-4.784281	 1.749669	-40.157450	 74.480600	 39.916750	-60.699110	-3.604970	 0.441569	-13.962020	-2.492838	 1.191179	-51.075760
-0.112648	-0.135921	 0.730816	 55.638920	 32.216880	-175.766200	 12.668130	 3.347381	 19.372620	 5.914861	-3.161252	-45.103180	-2.165795	 0.944491	-47.119460	-1.161519	 0.219431	-21.395630	-13.510830	-5.544271	-66.445400	-0.219937	 0.150983	-68.938440	 0.180749	-0.059007	-36.164560	-26.128520	-19.835870	-6.849161	 1.920499	-0.358257	-21.131890	 8.282067	-1.094835	-15.035470	-20.688680	-10.331860	-52.737370	-5.609419	 3.353078	-61.712570	-4.754526	 1.739078	-40.163990	 74.507980	 39.902900	-60.692500	-3.620191	 0.444245	-13.987610	-2.477144	 1.187782	-51.229530
-0.112433	-0.135962	 0.730972	 55.606730	 32.161320	-175.753800	 12.666950	 3.344651	 19.356090	 5.900470	-3.155420	-45.124450	-2.169860	 0.947606	-47.179000	-1.157218	 0.218315	-21.366250	-13.490250	-5.560300	-66.440840	-0.181594	 0.124748	-68.976620	 0.181998	-0.059453	-36.181680	-26.133670	-19.835580	-6.876753	 1.868879	-0.349452	-21.180400	 8.253702	-1.096188	-15.105160	-20.704840	-10.320660	-52.816720	-5.617836	 3.365472	-61.823080	-4.701952	 1.721043	-40.190110	 74.521130	 39.910520	-60.667320	-3.636172	 0.447557	-14.029480	-2.480804	 1.191042	-51.286110
